<svg version="1.1" id="Layer_1" xmlns="http://www.w3.org/2000/svg" xmlns:xlink="http://www.w3.org/1999/xlink" x="0px" y="0px"
	 width="100%" viewBox="0 0 1182 709" enable-background="new 0 0 1182 709" xml:space="preserve">
<path fill="#E61127" opacity="1.000000" stroke="none" 
	d="
M657.000000,710.000000 
	C614.312439,710.000000 571.624878,710.000000 528.185120,709.747498 
	C525.365601,709.304016 523.298340,709.112976 521.163574,708.462769 
	C521.083191,616.198669 521.075317,524.393799 521.022156,432.589020 
	C521.021057,430.700836 520.493591,428.813019 519.750305,426.772400 
	C517.624023,426.591339 515.959045,426.538025 514.294128,426.537964 
	C379.189148,426.532379 244.084152,426.534973 108.979164,426.526520 
	C73.329185,426.524292 37.679207,426.488831 1.999714,426.042145 
	C2.002375,397.483856 2.023044,369.352051 2.070761,341.220276 
	C2.102660,322.414154 2.173015,303.608124 2.670195,284.695374 
	C4.779564,284.561249 6.444897,284.509888 8.110234,284.509705 
	C177.370544,284.491394 346.630859,284.477661 515.891174,284.451080 
	C517.484375,284.450836 519.077637,284.282776 520.834351,284.183868 
	C520.834351,281.810944 520.834290,279.987518 520.834290,278.164093 
	C520.834167,190.035278 520.831299,101.906456 520.843628,13.777639 
	C520.844177,9.952628 520.985291,6.127637 521.468384,2.227146 
	C523.917175,1.767769 525.958618,1.383883 528.000000,0.999999 
	C570.687561,1.000000 613.375122,1.000000 656.735413,1.318314 
	C659.157654,1.808193 660.907166,1.979758 662.726929,2.605453 
	C662.818176,94.861305 662.837952,186.663025 662.868469,278.464752 
	C662.869080,280.291626 662.995605,282.118469 663.183472,284.260193 
	C664.584656,284.555969 665.865784,284.536865 667.429932,284.511597 
	C668.090637,284.506989 668.468140,284.508606 669.042236,284.679169 
	C669.878540,284.730286 670.518433,284.612427 671.564087,284.491882 
	C835.248230,284.501160 998.526550,284.512543 1161.804932,284.527191 
	C1168.468750,284.527771 1175.132446,284.559174 1181.714966,284.677979 
	C1181.633667,284.779724 1181.739624,285.020691 1181.850220,285.476410 
	C1181.997314,331.795074 1182.036011,377.657990 1182.056763,423.520935 
	C1182.057251,424.510498 1181.854126,425.500122 1181.385864,426.463623 
	C1011.073425,426.458679 841.121094,426.479797 670.898987,426.324158 
	C670.018616,426.257935 669.408081,426.368408 668.417603,426.488953 
	C666.771301,426.497375 665.504944,426.495789 663.979492,426.389160 
	C663.507996,426.548004 663.295532,426.811859 662.987976,427.531189 
	C662.881897,518.681702 662.873047,609.376770 662.850342,700.071838 
	C662.849548,703.062317 662.708435,706.052795 662.259766,709.076050 
	C660.257935,709.405884 658.628967,709.702942 657.000000,710.000000 
z"/>
<path fill="#FFFEFE" opacity="1.000000" stroke="none" 
	d="
M521.060913,2.302637 
	C520.985291,6.127637 520.844177,9.952628 520.843628,13.777639 
	C520.831299,101.906456 520.834167,190.035278 520.834290,278.164093 
	C520.834290,279.987518 520.834351,281.810944 520.834351,284.183868 
	C519.077637,284.282776 517.484375,284.450836 515.891174,284.451080 
	C346.630859,284.477661 177.370544,284.491394 8.110234,284.509705 
	C6.444897,284.509888 4.779564,284.561249 2.627807,284.500671 
	C2.141384,284.412659 1.892168,284.103271 1.929407,283.748535 
	C1.644431,282.929169 1.322215,282.464600 1.000000,282.000000 
	C1.000000,188.384689 1.000000,94.769379 1.000000,1.000000 
	C173.020859,1.000000 345.041779,1.000000 517.506165,1.351815 
	C518.862000,1.826513 519.774414,1.949395 520.761597,2.160191 
	C520.836487,2.248105 521.060913,2.302637 521.060913,2.302637 
z"/>
<path fill="#FFFFFF" opacity="1.000000" stroke="none" 
	d="
M663.063354,283.945312 
	C662.995605,282.118469 662.869080,280.291626 662.868469,278.464752 
	C662.837952,186.663025 662.818176,94.861305 662.843323,2.584330 
	C662.889404,2.109076 663.044739,1.930700 663.396240,1.951583 
	C664.165161,1.648315 664.582581,1.324166 665.000000,1.000008 
	C666.066711,1.000000 667.133362,1.000000 668.675293,1.368658 
	C670.433655,1.491544 671.716797,1.245773 673.000000,1.000001 
	C842.905945,1.000000 1012.811951,1.000000 1183.000000,1.000000 
	C1183.000000,94.354042 1183.000000,187.708359 1182.614502,281.635071 
	C1182.084839,282.997070 1181.940552,283.786621 1181.796265,284.576202 
	C1175.132446,284.559174 1168.468750,284.527771 1161.804932,284.527191 
	C998.526550,284.512543 835.248230,284.501160 671.189514,284.325623 
	C669.888000,284.278076 669.366882,284.394135 668.845703,284.510193 
	C668.468140,284.508606 668.090637,284.506989 667.056030,284.325439 
	C665.287048,284.078735 664.175232,284.012024 663.063354,283.945312 
z"/>
<path fill="#FFFFFF" opacity="1.000000" stroke="none" 
	d="
M664.238525,426.494171 
	C665.504944,426.495789 666.771301,426.497375 668.687866,426.663757 
	C669.948242,426.719299 670.558472,426.610107 671.168762,426.500885 
	C841.121094,426.479797 1011.073425,426.458679 1181.623291,426.779053 
	C1182.480469,427.080322 1182.740234,427.040161 1183.000000,427.000000 
	C1183.000000,521.281799 1183.000000,615.563599 1183.000000,710.000000 
	C1010.645813,710.000000 838.291565,710.000000 665.347900,709.726685 
	C664.189087,709.345093 663.619812,709.236755 662.950012,709.087585 
	C662.849548,709.046814 662.632751,709.043274 662.632690,709.043274 
	C662.708435,706.052795 662.849548,703.062317 662.850342,700.071838 
	C662.873047,609.376770 662.881897,518.681702 663.221436,427.522949 
	C663.899719,427.017487 664.129272,426.829132 664.238525,426.494171 
z"/>
<path fill="#FFFFFF" opacity="1.000000" stroke="none" 
	d="
M2.029226,426.468628 
	C37.679207,426.488831 73.329185,426.524292 108.979164,426.526520 
	C244.084152,426.534973 379.189148,426.532379 514.294128,426.537964 
	C515.959045,426.538025 517.624023,426.591339 519.691406,427.241516 
	C520.069336,430.026703 520.023621,432.190186 520.023376,434.353699 
	C520.013000,526.235779 520.006775,618.117920 520.000000,710.000000 
	C347.094604,710.000000 174.189240,710.000000 1.000000,710.000000 
	C1.000000,616.645935 1.000000,523.291626 1.362976,429.495239 
	C1.781093,428.344543 1.836234,427.635956 1.968897,426.825623 
	C2.046418,426.723877 2.029226,426.468658 2.029226,426.468628 
z"/>
<path fill="#D4BDBF" opacity="1.000000" stroke="none" 
	d="
M520.250000,710.000000 
	C520.006775,618.117920 520.013000,526.235779 520.023376,434.353699 
	C520.023621,432.190186 520.069336,430.026703 520.152771,427.394104 
	C520.493591,428.813019 521.021057,430.700836 521.022156,432.589020 
	C521.075317,524.393799 521.083191,616.198669 521.041565,708.719116 
	C520.991394,709.623230 520.995667,709.811584 521.000000,710.000000 
	C521.000000,710.000000 520.500000,710.000000 520.250000,710.000000 
z"/>
<path fill="#950104" opacity="1.000000" stroke="none" 
	d="
M1.892168,284.103271 
	C1.892168,284.103271 2.141384,284.412659 2.183773,284.607361 
	C2.173015,303.608124 2.102660,322.414154 2.070761,341.220276 
	C2.023044,369.352051 2.002375,397.483856 1.999714,426.042175 
	C2.029226,426.468658 2.046418,426.723877 1.742088,426.794647 
	C1.437757,426.865417 1.000000,427.000000 1.000000,427.000000 
	C1.000000,379.645782 1.000000,332.291534 1.217386,284.543335 
	C1.434772,284.149353 1.892168,284.103271 1.892168,284.103271 
z"/>
<path fill="#EB848D" opacity="1.000000" stroke="none" 
	d="
M1183.000000,426.531342 
	C1182.740234,427.040161 1182.480469,427.080322 1181.983398,426.805115 
	C1181.854126,425.500122 1182.057251,424.510498 1182.056763,423.520935 
	C1182.036011,377.657990 1181.997314,331.795074 1182.167236,285.479767 
	C1182.582397,285.018280 1182.791138,285.009125 1183.000000,285.000000 
	C1183.000000,332.020905 1183.000000,379.041779 1183.000000,426.531342 
z"/>
<path fill="#950104" opacity="1.000000" stroke="none" 
	d="
M527.562500,0.999999 
	C525.958618,1.383883 523.917175,1.767769 521.468384,2.227146 
	C521.060913,2.302637 520.836487,2.248105 520.862183,1.898948 
	C520.925293,1.366527 520.962646,1.183263 521.000000,1.000000 
	C523.041687,1.000000 525.083313,1.000000 527.562500,0.999999 
z"/>
<path fill="#950104" opacity="1.000000" stroke="none" 
	d="
M521.437500,710.000000 
	C520.995667,709.811584 520.991394,709.623230 521.109009,709.178406 
	C523.298340,709.112976 525.365601,709.304016 527.716431,709.747498 
	C525.958313,710.000000 523.916687,710.000000 521.437500,710.000000 
z"/>
<path fill="#950104" opacity="1.000000" stroke="none" 
	d="
M662.773071,2.130199 
	C660.907166,1.979758 659.157654,1.808193 657.204102,1.318314 
	C658.714355,1.000000 660.428711,1.000000 662.537292,1.234858 
	C662.931519,1.469717 663.044739,1.930700 663.044739,1.930700 
	C663.044739,1.930700 662.889404,2.109076 662.773071,2.130199 
z"/>
<path fill="#950104" opacity="1.000000" stroke="none" 
	d="
M657.428467,710.000000 
	C658.628967,709.702942 660.257935,709.405884 662.259827,709.076050 
	C662.632751,709.043274 662.849548,709.046814 662.856750,709.300171 
	C662.863953,709.553589 663.000000,710.000000 663.000000,710.000000 
	C661.285645,710.000000 659.571289,710.000000 657.428467,710.000000 
z"/>
<path fill="#7F7F7F" opacity="1.000000" stroke="none" 
	d="
M672.600037,1.000001 
	C671.716797,1.245773 670.433655,1.491544 669.075195,1.368658 
	C670.066711,1.000000 671.133362,1.000000 672.600037,1.000001 
z"/>
<path fill="#7F7F7F" opacity="1.000000" stroke="none" 
	d="
M1183.000000,284.625000 
	C1182.791138,285.009125 1182.582397,285.018280 1182.056641,285.024048 
	C1181.739624,285.020691 1181.633667,284.779724 1181.714966,284.677979 
	C1181.940552,283.786621 1182.084839,282.997070 1182.614502,282.103760 
	C1183.000000,282.750000 1183.000000,283.500000 1183.000000,284.625000 
z"/>
<path fill="#7F7F7F" opacity="1.000000" stroke="none" 
	d="
M520.625000,1.000000 
	C520.962646,1.183263 520.925293,1.366527 520.787354,1.811034 
	C519.774414,1.949395 518.862000,1.826513 517.974854,1.351815 
	C518.750000,1.000000 519.500000,1.000000 520.625000,1.000000 
z"/>
<path fill="#BDBDBD" opacity="1.000000" stroke="none" 
	d="
M663.333313,710.000000 
	C663.000000,710.000000 662.863953,709.553589 662.957214,709.340942 
	C663.619812,709.236755 664.189087,709.345093 664.879211,709.726685 
	C664.555542,710.000000 664.111084,710.000000 663.333313,710.000000 
z"/>
<path fill="#7F7F7F" opacity="1.000000" stroke="none" 
	d="
M1.000000,427.333313 
	C1.000000,427.000000 1.437757,426.865417 1.664566,426.896362 
	C1.836234,427.635956 1.781093,428.344543 1.362976,429.026581 
	C1.000000,428.555542 1.000000,428.111115 1.000000,427.333313 
z"/>
<path fill="#7F7F7F" opacity="1.000000" stroke="none" 
	d="
M1.929407,283.748535 
	C1.892168,284.103271 1.434772,284.149353 1.217386,284.074677 
	C1.000000,283.555573 1.000000,283.111115 1.000000,282.333344 
	C1.322215,282.464600 1.644431,282.929169 1.929407,283.748535 
z"/>
<path fill="#7F7F7F" opacity="1.000000" stroke="none" 
	d="
M663.396240,1.951583 
	C663.044739,1.930700 662.931519,1.469717 662.965759,1.234858 
	C663.444458,1.000000 663.888916,1.000000 664.666687,1.000008 
	C664.582581,1.324166 664.165161,1.648315 663.396240,1.951583 
z"/>
<path fill="#EB848D" opacity="1.000000" stroke="none" 
	d="
M663.183472,284.260193 
	C664.175232,284.012024 665.287048,284.078735 666.772888,284.331604 
	C665.865784,284.536865 664.584656,284.555969 663.183472,284.260193 
z"/>
<path fill="#EB848D" opacity="1.000000" stroke="none" 
	d="
M670.898987,426.324158 
	C670.558472,426.610107 669.948242,426.719299 669.067749,426.653687 
	C669.408081,426.368408 670.018616,426.257935 670.898987,426.324158 
z"/>
<path fill="#EB848D" opacity="1.000000" stroke="none" 
	d="
M669.042236,284.679169 
	C669.366882,284.394135 669.888000,284.278076 670.783691,284.328308 
	C670.518433,284.612427 669.878540,284.730286 669.042236,284.679169 
z"/>
<path fill="#EB848D" opacity="1.000000" stroke="none" 
	d="
M663.979492,426.389160 
	C664.129272,426.829132 663.899719,427.017487 663.316528,427.067505 
	C663.295532,426.811859 663.507996,426.548004 663.979492,426.389160 
z"/>
</svg>